# xmcd
#
# Track frame offsets:
#       183
#       13250
#       27165
#       40820
#       59565
#       81380
#       96648
#       113718
#       131320
#       148575
#       167513
#       190375
#       207068
#       222890
#       242675
#       257585
#       276680
#       288833
#
# Disc length: 4099 seconds
#
# Revision: 0
# Processed by: cddbd v1.5.1PL0 Copyright (c) Steve Scherf et al.
# Submitted via: CD-DA_X-Tractor v0.24
#
DISCID=0f100112
DTITLE=Various Artist - You Can't Hurry Love
DYEAR=1994
DGENRE=Mowtown
TTITLE0=Phil Collins - You can't Hurry Love
TTITLE1=Faith No More - Easy
TTITLE2=UB40 - The Way You Do The Things You Do
TTITLE3=Rod Stewart - This Old Heart Of Mine
TTITLE4=Robert Palmer - Mercy Mercy Me
TTITLE5=Doobie Brothers - Little Darling
TTITLE6=Go West - The Tracks Of My Tears
TTITLE7=Dave Stweart - What Becomes Of The Broken Hearted?
TTITLE8=Bef and Tina - Ball Of Confusion
TTITLE9=Was Not Was - Papa Was A Rolling Stone
TTITLE10=George Michael - They Wont Go When I Go
TTITLE11=Japan - I Second That Emotion
TTITLE12=James Taylor - How Sweet It Is
TTITLE13=The Communards - Never Can Say Goodbye
TTITLE14=Bananarama - Nathan Jones
TTITLE15=Kim Wilde - You Keep Me Hanging On
TTITLE16=The Beat - Tears Of A Clown
TTITLE17=Paul Young - Wherever I aly My Hat
EXTD=
EXTT0=
EXTT1=
EXTT2=
EXTT3=
EXTT4=
EXTT5=
EXTT6=
EXTT7=
EXTT8=
EXTT9=
EXTT10=
EXTT11=
EXTT12=
EXTT13=
EXTT14=
EXTT15=
EXTT16=
EXTT17=
PLAYORDER=
